<?xml version="1.0" encoding="utf-8"?>
<!-- Generator: Adobe Illustrator 15.0.0, SVG Export Plug-In . SVG Version: 6.00 Build 0)  -->
<!DOCTYPE svg PUBLIC "-//W3C//DTD SVG 1.1//EN" "http://www.w3.org/Graphics/SVG/1.1/DTD/svg11.dtd">
<svg version="1.1" xmlns="http://www.w3.org/2000/svg" xmlns:xlink="http://www.w3.org/1999/xlink" x="0px" y="0px" width="56px"
	 height="56px" viewBox="0 0 56 56" enable-background="new 0 0 56 56" xml:space="preserve">
<g id="DO_NOT_EDIT_-_BOUNDING_BOX">
	<rect id="BOUNDING_BOX_1_" fill="none" width="56" height="56"/>
</g>
<g id="GREY_BACKGROUND" display="none">
	<path id="GREY_1_2_" display="inline" fill="#6D6E70" d="M51.253,40.93c-1.606,5.285-5.103,8.988-12.083,10.789
		c-5.21,1.344-8.801,1.314-11.232,1.26c-2.434,0.055-6.023,0.084-11.236-1.26c-6.979-1.801-10.736-5.43-12.08-10.789
		c-3.648-14.531,0-25.857,0-25.857C6.493,9.87,9.724,6.081,16.702,4.281c5.212-1.348,8.802-1.316,11.236-1.266
		c2.431-0.051,6.022-0.083,11.232,1.266c6.98,1.799,10.207,5.589,12.083,10.791C51.253,15.072,55.184,27.959,51.253,40.93z"/>
</g>
<g id="RED_x2F_ORANGE_BACKGROUNDS" display="none">
	<path id="ORANGE_2_1_" fill="#F7D303" d="M51.253,40.93c-1.604,5.289-5.103,8.988-12.083,10.793
		c-5.21,1.342-8.17,1.279-11.232,1.261c-2.938,0.019-6.023,0.081-11.236-1.261c-6.979-1.805-10.736-5.43-12.08-10.793
		c-3.648-14.529,0-25.855,0-25.855c1.871-5.202,5.101-8.991,12.08-10.791C21.915,2.935,25,3,28,3.018C31,3,33.96,2.935,39.17,4.283
		c6.98,1.8,10.207,5.589,12.083,10.791C51.253,15.074,55.184,27.963,51.253,40.93z"/>
	<path id="ORANGE_1_1_" display="inline" fill="#FFA300" d="M51.253,40.931c-1.606,5.285-5.103,8.99-12.083,10.789
		C33.96,53.063,31,52.99,28,52.99s-6.085,0.073-11.298-1.271C9.724,49.921,5.966,46.29,4.622,40.931
		c-3.648-14.532,0-25.857,0-25.857C6.492,9.871,9.724,6.082,16.702,4.283C21.915,2.935,25.566,2.969,28,3.02
		c2.432-0.051,5.96-0.085,11.17,1.263c6.98,1.799,10.207,5.588,12.083,10.791C51.253,15.073,55.184,27.961,51.253,40.931z"/>
	<path id="RED_3_1_" fill="#FF5B00" d="M51.253,40.932c-1.606,5.283-5.103,8.986-12.083,10.789C33.96,53.062,31,53,27.938,52.981
		C25,53,21.915,53.062,16.702,51.721c-6.979-1.803-10.736-5.432-12.08-10.789c-3.648-14.533,0-25.859,0-25.859
		c1.871-5.202,5.102-8.991,12.08-10.791C21.915,2.934,25,3,28,3.017C31,3,33.96,2.934,39.17,4.282
		c6.98,1.8,10.207,5.589,12.083,10.791C51.253,15.073,55.184,27.961,51.253,40.932z"/>
	<path id="RED_2_1_" fill="#F74000" d="M51.253,40.932c-1.606,5.283-5.103,8.986-12.083,10.789C33.96,53.062,31,53,27.938,52.981
		C25,53,21.915,53.062,16.702,51.721c-6.979-1.803-10.736-5.432-12.08-10.789c-3.648-14.533,0-25.859,0-25.859
		c1.871-5.202,5.102-8.991,12.08-10.791C21.915,2.934,25,3,28,3.017C31,3,33.96,2.934,39.17,4.282
		c6.98,1.8,10.207,5.589,12.083,10.791C51.253,15.073,55.184,27.961,51.253,40.932z"/>
	<path id="RED_1_1_" fill="#E21429" d="M51.253,40.932c-1.606,5.283-5.103,8.986-12.083,10.789C33.96,53.062,31,53,27.938,52.981
		C25,53,21.915,53.062,16.702,51.721c-6.979-1.803-10.736-5.432-12.08-10.789c-3.648-14.533,0-25.859,0-25.859
		c1.871-5.202,5.102-8.991,12.08-10.791C21.915,2.934,25.062,3,28,3.017C31.062,3,33.96,2.934,39.17,4.282
		c6.98,1.8,10.207,5.589,12.083,10.791C51.253,15.073,55.184,27.961,51.253,40.932z"/>
</g>
<g id="VIOLET_x2F_PINK_BACKGROUNDS">
	<path id="PINK_2_1_" display="none" fill="#EC297B" d="M51.253,40.93c-1.606,5.285-5.103,8.988-12.083,10.789
		c-5.21,1.344-8.801,1.314-11.232,1.26c-2.434,0.055-6.023,0.084-11.236-1.26c-6.979-1.801-10.736-5.43-12.08-10.789
		c-3.648-14.531,0-25.857,0-25.857C6.493,9.87,9.724,6.081,16.702,4.281C21.915,2.933,25,3,28,3.016C31,3,33.96,2.933,39.17,4.281
		c6.98,1.799,10.207,5.589,12.083,10.791C51.253,15.072,55.184,27.959,51.253,40.93z"/>
	<path id="PINK_1_1_" display="none" fill="#E50C98" d="M51.253,40.932c-1.607,5.283-5.103,8.986-12.083,10.789
		c-5.21,1.342-8.803,1.314-11.232,1.26c-2.434,0.055-6.024,0.082-11.236-1.26c-6.979-1.803-10.736-5.432-12.08-10.789
		c-3.648-14.533,0-25.859,0-25.859c1.871-5.202,5.102-8.991,12.08-10.791C21.914,2.934,25,3,28,3.017C31,3,33.96,2.934,39.17,4.282
		c6.98,1.8,10.206,5.589,12.083,10.791C51.253,15.073,55.183,27.961,51.253,40.932z"/>
	<path id="VIOLET_2_1_" fill="#942478" d="M51.253,40.932c-1.606,5.283-5.103,8.986-12.083,10.789
		c-5.21,1.342-8.801,1.314-11.232,1.26c-2.434,0.055-6.023,0.082-11.236-1.26c-6.979-1.803-10.736-5.432-12.08-10.789
		c-3.648-14.533,0-25.859,0-25.859c1.871-5.202,5.102-8.991,12.08-10.791C21.915,2.934,25,3,28,3.017C31,3,33.96,2.934,39.17,4.282
		c6.98,1.8,10.207,5.589,12.083,10.791C51.253,15.073,55.184,27.961,51.253,40.932z"/>
	<path id="VIOLET_1_1_" display="none" fill="#6222A0" d="M51.253,40.932c-1.606,5.283-5.103,8.986-12.083,10.789
		c-5.21,1.342-8.801,1.314-11.232,1.26c-2.434,0.055-6.023,0.082-11.236-1.26c-6.979-1.803-10.736-5.432-12.08-10.789
		c-3.648-14.533,0-25.859,0-25.859c1.871-5.202,5.102-8.991,12.08-10.791C21.915,2.934,25,3,28,3.017C31,3,33.96,2.934,39.17,4.282
		c6.98,1.8,10.207,5.589,12.083,10.791C51.253,15.073,55.184,27.961,51.253,40.932z"/>
</g>
<g id="BLUE_BACKGROUNDS" display="none">
	<path id="BLUE_4_1_" display="inline" fill="#2C00A5" d="M51.253,40.932c-1.606,5.283-5.103,8.986-12.083,10.789
		c-5.21,1.342-8.801,1.314-11.232,1.26c-2.434,0.055-6.023,0.082-11.236-1.26c-6.979-1.803-10.736-5.432-12.08-10.789
		c-3.648-14.533,0-25.859,0-25.859c1.871-5.202,5.102-8.991,12.08-10.791C21.915,2.934,25,3,28,3.017C31,3,33.96,2.934,39.17,4.282
		c6.98,1.8,10.207,5.589,12.083,10.791C51.253,15.073,55.184,27.961,51.253,40.932z"/>
	<path id="BLUE_3_2_" fill="#1B34B2" d="M51.253,40.932c-1.606,5.283-5.103,8.986-12.083,10.789
		c-5.21,1.342-8.801,1.314-11.232,1.26c-2.434,0.055-6.023,0.082-11.236-1.26c-6.979-1.803-10.736-5.432-12.08-10.789
		c-3.648-14.533,0-25.859,0-25.859c1.871-5.202,5.102-8.991,12.08-10.791C21.915,2.934,25,3,28,3.017C31,3,33.96,2.934,39.17,4.282
		c6.98,1.8,10.207,5.589,12.083,10.791C51.253,15.073,55.184,27.961,51.253,40.932z"/>
	<path id="BLUE_2_1_" fill="#0066A8" d="M51.253,40.932c-1.606,5.283-5.103,8.986-12.083,10.789
		c-5.21,1.342-8.801,1.314-11.232,1.26c-2.434,0.055-6.023,0.082-11.236-1.26c-6.979-1.803-10.736-5.432-12.08-10.789
		c-3.648-14.533,0-25.859,0-25.859c1.871-5.202,5.102-8.991,12.08-10.791C21.915,2.934,25,3,28,3.017C31,3,33.96,2.934,39.17,4.282
		c6.98,1.8,10.207,5.589,12.083,10.791C51.253,15.073,55.184,27.961,51.253,40.932z"/>
	<path id="BLUE_1_1_" fill="#0082B6" d="M51.253,40.93c-1.606,5.285-5.103,8.988-12.083,10.789c-5.21,1.344-8.801,1.314-11.232,1.26
		c-2.434,0.055-6.023,0.084-11.236-1.26c-6.979-1.801-10.736-5.43-12.08-10.789c-3.648-14.531,0-25.857,0-25.857
		C6.493,9.87,9.724,6.081,16.702,4.281C21.915,2.933,25,3,28,3.016C31,3,33.96,2.933,39.17,4.281
		c6.98,1.799,10.207,5.589,12.083,10.791C51.253,15.072,55.184,27.959,51.253,40.93z"/>
</g>
<g id="GREEN_BACKGROUNDS" display="none">
	<path id="GREEN_3_2_" fill="#0D9758" d="M51.253,40.93c-1.606,5.285-5.103,8.988-12.083,10.789
		c-5.21,1.344-8.801,1.314-11.232,1.26c-2.434,0.055-6.023,0.084-11.236-1.26c-6.979-1.801-10.736-5.43-12.08-10.789
		c-3.648-14.531,0-25.857,0-25.857C6.493,9.87,9.724,6.081,16.702,4.281C21.915,2.933,25,3,28,3.016C31,3,33.96,2.933,39.17,4.281
		c6.98,1.799,10.207,5.589,12.083,10.791C51.253,15.072,55.184,27.959,51.253,40.93z"/>
	<path id="GREEN_2_2_" fill="#128406" d="M51.253,40.93c-1.606,5.285-5.103,8.988-12.083,10.789
		c-5.21,1.344-8.801,1.314-11.232,1.26c-2.434,0.055-6.023,0.084-11.236-1.26c-6.979-1.801-10.736-5.43-12.08-10.789
		c-3.648-14.531,0-25.857,0-25.857C6.493,9.87,9.724,6.081,16.702,4.281C21.915,2.933,25,3,28,3.016C31,3,33.96,2.933,39.17,4.281
		c6.98,1.799,10.207,5.589,12.083,10.791C51.253,15.072,55.184,27.959,51.253,40.93z"/>
	<path id="GREEN_1_2_" display="inline" fill="#64AF2D" d="M51.253,40.93c-1.606,5.285-5.103,8.988-12.083,10.789
		c-5.21,1.344-8.801,1.314-11.232,1.26c-2.434,0.055-6.023,0.084-11.236-1.26c-6.979-1.801-10.736-5.43-12.08-10.789
		c-3.648-14.531,0-25.857,0-25.857C6.493,9.87,9.724,6.081,16.702,4.281C21.915,2.933,25,3,28,3.016C31,3,33.96,2.933,39.17,4.281
		c6.98,1.799,10.207,5.589,12.083,10.791C51.253,15.072,55.184,27.959,51.253,40.93z"/>
</g>
<g id="PLACE_YOUR_GLYPH_HERE">
	<path fill="#FFFFFF" d="M42,38.852c0,0.749-0.542,1.355-1.211,1.355h-25.11c-0.669,0-1.211-0.606-1.211-1.355v-9.467
		c0-0.749,0.542-1.355,1.211-1.355h25.11c0.669,0,1.211,0.606,1.211,1.355V38.852z"/>
	<g>
		<g>
			<rect x="21.596" y="18.489" fill="#FFFFFF" width="1.796" height="8.299"/>
			<rect x="27.32" y="18.489" fill="#FFFFFF" width="1.796" height="8.299"/>
			<rect x="33.075" y="18.489" fill="#FFFFFF" width="1.796" height="8.299"/>
		</g>
		<path fill="#FFFFFF" d="M22.102,17.916c-1.319-1.098,0.426-1.942,0.243-3.349s0.433,0.057,1.069,1.645
			C24.049,17.799,22.102,17.916,22.102,17.916z"/>
		<path fill="#FFFFFF" d="M27.972,17.916c-1.319-1.098,0.426-1.942,0.242-3.349c-0.184-1.407,0.433,0.057,1.068,1.645
			C29.918,17.799,27.972,17.916,27.972,17.916z"/>
		<path fill="#FFFFFF" d="M33.612,17.916c-1.319-1.098,0.426-1.942,0.242-3.349s0.433,0.057,1.068,1.645
			C35.56,17.799,33.612,17.916,33.612,17.916z"/>
	</g>
</g>
<g id="DO_NOT_EDIT_-_FOCAL_ZONE_GUIDES">
</g>
<g id="DO_NOT_EDIT_-_HIGHLIGHT">
	<g id="HIGHLIGHT_2_">
		<g id="HIGHLIGHT_LAYER_4">
			<defs>
				<filter id="Adobe_OpacityMaskFilter" filterUnits="userSpaceOnUse" x="4.543" y="3.486" width="46.917" height="35.648">
					<feFlood  style="flood-color:white;flood-opacity:1" result="back"/>
					<feBlend  in="SourceGraphic" in2="back" mode="normal"/>
				</filter>
			</defs>
			<mask maskUnits="userSpaceOnUse" x="4.543" y="3.486" width="46.917" height="35.648" id="SVGID_1_">
				<g filter="url(#Adobe_OpacityMaskFilter)">
					<defs>
						<filter id="Adobe_OpacityMaskFilter_1_" filterUnits="userSpaceOnUse" x="4.543" y="3.486" width="46.917" height="35.648">
							<feFlood  style="flood-color:white;flood-opacity:1" result="back"/>
							<feBlend  in="SourceGraphic" in2="back" mode="normal"/>
						</filter>
					</defs>
					<mask maskUnits="userSpaceOnUse" x="4.543" y="3.486" width="46.917" height="35.648" id="SVGID_1_">
						<g filter="url(#Adobe_OpacityMaskFilter_1_)">
						</g>
					</mask>
					<linearGradient id="SVGID_2_" gradientUnits="userSpaceOnUse" x1="28.0015" y1="39.1348" x2="28.0015" y2="3.4868">
						<stop  offset="0" style="stop-color:#000000"/>
						<stop  offset="0.1193" style="stop-color:#171717"/>
						<stop  offset="0.3707" style="stop-color:#545454"/>
						<stop  offset="0.7298" style="stop-color:#B3B3B3"/>
						<stop  offset="1" style="stop-color:#FFFFFF"/>
					</linearGradient>
					<path mask="url(#SVGID_1_)" fill="url(#SVGID_2_)" d="M28.611,39.135c18.763,0,22.849-6.258,22.849-17.795
						c0-11.568-4.199-17.849-22.849-17.849l-1.225-0.004C8.625,3.486,4.543,9.75,4.543,21.288c0,11.563,4.194,17.847,22.843,17.847
						H28.611z"/>
				</g>
			</mask>
			<linearGradient id="SVGID_3_" gradientUnits="userSpaceOnUse" x1="28.0015" y1="39.1348" x2="28.0015" y2="3.4868">
				<stop  offset="0" style="stop-color:#FFFFFF"/>
				<stop  offset="1" style="stop-color:#FFFFFF"/>
			</linearGradient>
			<path opacity="0.07" fill="url(#SVGID_3_)" d="M28.611,39.135c18.763,0,22.849-6.258,22.849-17.795
				c0-11.568-4.199-17.849-22.849-17.849l-1.225-0.004C8.625,3.486,4.543,9.75,4.543,21.288c0,11.563,4.194,17.847,22.843,17.847
				H28.611z"/>
		</g>
		<g id="HIGHLIGHT_LAYER_3">
			<defs>
				<filter id="Adobe_OpacityMaskFilter_2_" filterUnits="userSpaceOnUse" x="5.226" y="4.005" width="45.551" height="34.612">
					<feFlood  style="flood-color:white;flood-opacity:1" result="back"/>
					<feBlend  in="SourceGraphic" in2="back" mode="normal"/>
				</filter>
			</defs>
			<mask maskUnits="userSpaceOnUse" x="5.226" y="4.005" width="45.551" height="34.612" id="SVGID_4_">
				<g filter="url(#Adobe_OpacityMaskFilter_2_)">
					<defs>
						<filter id="Adobe_OpacityMaskFilter_3_" filterUnits="userSpaceOnUse" x="5.226" y="4.005" width="45.551" height="34.612">
							<feFlood  style="flood-color:white;flood-opacity:1" result="back"/>
							<feBlend  in="SourceGraphic" in2="back" mode="normal"/>
						</filter>
					</defs>
					<mask maskUnits="userSpaceOnUse" x="5.226" y="4.005" width="45.551" height="34.612" id="SVGID_4_">
						<g filter="url(#Adobe_OpacityMaskFilter_3_)">
						</g>
					</mask>
					<linearGradient id="SVGID_5_" gradientUnits="userSpaceOnUse" x1="28.0015" y1="38.6172" x2="28.0015" y2="4.0059">
						<stop  offset="0" style="stop-color:#000000"/>
						<stop  offset="0.1193" style="stop-color:#171717"/>
						<stop  offset="0.3707" style="stop-color:#545454"/>
						<stop  offset="0.7298" style="stop-color:#B3B3B3"/>
						<stop  offset="1" style="stop-color:#FFFFFF"/>
					</linearGradient>
					<path mask="url(#SVGID_4_)" fill="url(#SVGID_5_)" d="M28.594,38.617c18.216,0,22.183-6.076,22.183-17.278
						c0-11.232-4.076-17.329-22.183-17.329l-1.189-0.005c-18.215,0-22.179,6.082-22.179,17.283c0,11.227,4.072,17.329,22.179,17.329
						H28.594z"/>
				</g>
			</mask>
			<linearGradient id="SVGID_6_" gradientUnits="userSpaceOnUse" x1="28.0015" y1="38.6172" x2="28.0015" y2="4.0059">
				<stop  offset="0" style="stop-color:#FFFFFF"/>
				<stop  offset="1" style="stop-color:#FFFFFF"/>
			</linearGradient>
			<path opacity="0.07" fill="url(#SVGID_6_)" d="M28.594,38.617c18.216,0,22.183-6.076,22.183-17.278
				c0-11.232-4.076-17.329-22.183-17.329l-1.189-0.005c-18.215,0-22.179,6.082-22.179,17.283c0,11.227,4.072,17.329,22.179,17.329
				H28.594z"/>
		</g>
		<g id="HIGHLIGHT_LAYER_2">
			<defs>
				<filter id="Adobe_OpacityMaskFilter_4_" filterUnits="userSpaceOnUse" x="5.889" y="4.51" width="44.224" height="33.604">
					<feFlood  style="flood-color:white;flood-opacity:1" result="back"/>
					<feBlend  in="SourceGraphic" in2="back" mode="normal"/>
				</filter>
			</defs>
			<mask maskUnits="userSpaceOnUse" x="5.889" y="4.51" width="44.224" height="33.604" id="SVGID_7_">
				<g filter="url(#Adobe_OpacityMaskFilter_4_)">
					<defs>
						<filter id="Adobe_OpacityMaskFilter_5_" filterUnits="userSpaceOnUse" x="5.889" y="4.51" width="44.224" height="33.604">
							<feFlood  style="flood-color:white;flood-opacity:1" result="back"/>
							<feBlend  in="SourceGraphic" in2="back" mode="normal"/>
						</filter>
					</defs>
					<mask maskUnits="userSpaceOnUse" x="5.889" y="4.51" width="44.224" height="33.604" id="SVGID_7_">
						<g filter="url(#Adobe_OpacityMaskFilter_5_)">
						</g>
					</mask>
					<linearGradient id="SVGID_8_" gradientUnits="userSpaceOnUse" x1="28.0005" y1="38.1133" x2="28.0005" y2="4.5103">
						<stop  offset="0" style="stop-color:#000000"/>
						<stop  offset="0.1193" style="stop-color:#171717"/>
						<stop  offset="0.3707" style="stop-color:#545454"/>
						<stop  offset="0.7298" style="stop-color:#B3B3B3"/>
						<stop  offset="1" style="stop-color:#FFFFFF"/>
					</linearGradient>
					<path mask="url(#SVGID_7_)" fill="url(#SVGID_8_)" d="M28.577,38.113c17.685,0,21.535-5.9,21.535-16.775
						c0-10.904-3.958-16.824-21.535-16.824L27.421,4.51c-17.684,0-21.533,5.904-21.533,16.779c0,10.9,3.954,16.824,21.533,16.824
						H28.577z"/>
				</g>
			</mask>
			<linearGradient id="SVGID_9_" gradientUnits="userSpaceOnUse" x1="28.0005" y1="38.1133" x2="28.0005" y2="4.5103">
				<stop  offset="0" style="stop-color:#FFFFFF"/>
				<stop  offset="1" style="stop-color:#FFFFFF"/>
			</linearGradient>
			<path opacity="0.07" fill="url(#SVGID_9_)" d="M28.577,38.113c17.685,0,21.535-5.9,21.535-16.775
				c0-10.904-3.958-16.824-21.535-16.824L27.421,4.51c-17.684,0-21.533,5.904-21.533,16.779c0,10.9,3.954,16.824,21.533,16.824
				H28.577z"/>
		</g>
		<g id="HIGHLIGHT_LAYER_1">
			<defs>
				<filter id="Adobe_OpacityMaskFilter_6_" filterUnits="userSpaceOnUse" x="6.533" y="4.999" width="42.936" height="32.624">
					<feFlood  style="flood-color:white;flood-opacity:1" result="back"/>
					<feBlend  in="SourceGraphic" in2="back" mode="normal"/>
				</filter>
			</defs>
			<mask maskUnits="userSpaceOnUse" x="6.533" y="4.999" width="42.936" height="32.624" id="SVGID_10_">
				<g filter="url(#Adobe_OpacityMaskFilter_6_)">
					<defs>
						<filter id="Adobe_OpacityMaskFilter_7_" filterUnits="userSpaceOnUse" x="6.533" y="4.999" width="42.936" height="32.624">
							<feFlood  style="flood-color:white;flood-opacity:1" result="back"/>
							<feBlend  in="SourceGraphic" in2="back" mode="normal"/>
						</filter>
					</defs>
					<mask maskUnits="userSpaceOnUse" x="6.533" y="4.999" width="42.936" height="32.624" id="SVGID_10_">
						<g filter="url(#Adobe_OpacityMaskFilter_7_)">
						</g>
					</mask>
					<linearGradient id="SVGID_11_" gradientUnits="userSpaceOnUse" x1="28.001" y1="37.623" x2="28.001" y2="4.9995">
						<stop  offset="0" style="stop-color:#000000"/>
						<stop  offset="0.1193" style="stop-color:#171717"/>
						<stop  offset="0.3707" style="stop-color:#545454"/>
						<stop  offset="0.7298" style="stop-color:#B3B3B3"/>
						<stop  offset="1" style="stop-color:#FFFFFF"/>
					</linearGradient>
					<path mask="url(#SVGID_10_)" fill="url(#SVGID_11_)" d="M28.561,37.623c17.169,0,20.908-5.729,20.908-16.286
						c0-10.587-3.843-16.334-20.908-16.334l-1.122-0.004c-17.169,0-20.906,5.732-20.906,16.291c0,10.583,3.839,16.333,20.906,16.333
						H28.561z"/>
				</g>
			</mask>
			<linearGradient id="SVGID_12_" gradientUnits="userSpaceOnUse" x1="28.001" y1="37.623" x2="28.001" y2="4.9995">
				<stop  offset="0" style="stop-color:#FFFFFF"/>
				<stop  offset="1" style="stop-color:#FFFFFF"/>
			</linearGradient>
			<path opacity="0.07" fill="url(#SVGID_12_)" d="M28.561,37.623c17.169,0,20.908-5.729,20.908-16.286
				c0-10.587-3.843-16.334-20.908-16.334l-1.122-0.004c-17.169,0-20.906,5.732-20.906,16.291c0,10.583,3.839,16.333,20.906,16.333
				H28.561z"/>
		</g>
	</g>
</g>
</svg>
