<?xml version="1.0"?>
<!-- Converted with SVG Converter - Version 0.9.5 (Compiled Mon May 30 09:08:51 2011) - Copyright (C) 2011 Nokia -->
<svg xmlns="http://www.w3.org/2000/svg" width="96px" x="0px" version="1.1" y="0px" height="96px" viewBox="0 0 96 96" xmlns:xlink="http://www.w3.org/1999/xlink" baseProfile="tiny" xml:space="preserve">
 <g id="DO_NOT_EDIT_-_BOUNDING_BOX">
  <rect width="96" fill="none" height="96" id="BOUNDING_BOX"/>
 </g>
 <g id="DO_NOT_EDIT_-_SHADOW">
  <path stroke-opacity="0.4" fill-opacity="0.4" id="SHADOW" d="M88.023,49c0,29.633-10.364,40-40,40c-29.635,0-40-10.367-40-40c0-29.634,10.366-40,40-40&#xd;&#xa;&#x9;&#x9;C77.659,9,88.023,19.365,88.023,49z"/>
 </g>
 <g id="BLUE_BACKGROUNDS">
  <linearGradient id="BLUE_4_2_" y1="87.9893" x1="48.0005" y2="8.0112" gradientUnits="userSpaceOnUse" x2="48.0005">
   <stop offset="0.0364" style="stop-color:#004370"/>
   <stop offset="0.2391" style="stop-color:#00497A"/>
   <stop offset="0.5818" style="stop-color:#005994"/>
   <stop offset="1" style="stop-color:#0072BD"/>
  </linearGradient>
  <path fill="url(#BLUE_4_2_)" id="BLUE_4_1_" d="M8,47.989c0,29.633,10.365,40,40,40c29.637,0,40-10.367,40-40&#xd;&#xa;&#x9;&#x9;c0-28.985-9.926-39.53-38.091-39.979h-3.817C17.928,8.459,8,19.004,8,47.989z"/>
  <linearGradient id="HIGHLIGHT_BLU4_1_" y1="8.2559" x1="47.9995" y2="87.5043" gradientUnits="userSpaceOnUse" x2="47.9995">
   <stop offset="0.0364" style="stop-color:#FFFFFF"/>
   <stop offset="0.129" style="stop-color:#F5F7FA"/>
   <stop offset="0.2858" style="stop-color:#DBE1ED"/>
   <stop offset="0.4876" style="stop-color:#AFBDD7"/>
   <stop offset="0.7265" style="stop-color:#738CB8"/>
   <stop offset="0.9942" style="stop-color:#284D92"/>
   <stop offset="1" style="stop-color:#264C91"/>
  </linearGradient>
  <path stroke-opacity="0.25" fill="url(#HIGHLIGHT_BLU4_1_)" fill-opacity="0.25" id="HIGHLIGHT_BLU4" d="M48,8C18.365,8,8,18.365,8,48&#xd;&#xa;&#x9;&#x9;c0,29.633,10.365,40,40,40c29.637,0,40-10.367,40-40C88,18.365,77.637,8,48,8z M48,87.023C18.842,87.023,9,77.176,9,48&#xd;&#xa;&#x9;&#x9;S18.842,8.977,48,8.977S87,18.824,87,48S77.158,87.023,48,87.023z"/>
 </g>
 <g id="PLACE_YOUR_GRAPHIC_HERE">
  <path stroke-opacity="0.05" fill-opacity="0.05" d="M73.156,42.336V39.05c0-1.378-1.121-2.5-2.5-2.5h-0.122v-3.118c0-1.162-0.796-2.148-1.884-2.423v-2.804&#xd;&#xa;&#x9;&#x9;c0-1.378-1.121-2.5-2.5-2.5h-1.583c-1.379,0-2.5,1.122-2.5,2.5v2.804c-1.088,0.275-1.885,1.262-1.885,2.424v3.118h-0.127&#xd;&#xa;&#x9;&#x9;c-0.754,0-1.431,0.335-1.89,0.865V26.531c0-1.378-1.121-2.5-2.5-2.5H37.624c-1.378,0-2.5,1.122-2.5,2.5V38.04&#xd;&#xa;&#x9;&#x9;c-0.013,0-10.857,0-10.857,0c-1.378,0-2.5,1.122-2.5,2.5v30.306c0,1.379,1.122,2.5,2.5,2.5h10.818c0.449,0,0.888-0.121,1.27-0.346&#xd;&#xa;&#x9;&#x9;c0.381,0.225,0.82,0.346,1.269,0.346h18.042c0.395,0,0.778-0.092,1.126-0.268c0.348,0.176,0.731,0.268,1.126,0.268h14.876&#xd;&#xa;&#x9;&#x9;c1.379,0,2.5-1.121,2.5-2.5V44.81C75.294,43.554,74.363,42.512,73.156,42.336z"/>
  <path stroke-opacity="0.07" fill-opacity="0.07" d="M72.794,42.81h-0.138V39.05c0-1.103-0.897-2-2-2h-0.622v-3.618c0-1.064-0.835-1.937-1.884-1.997v-3.231&#xd;&#xa;&#x9;&#x9;c0-1.103-0.897-2-2-2h-1.583c-1.103,0-2,0.897-2,2v3.231c-1.05,0.06-1.885,0.933-1.885,1.997v3.618h-0.627c-1.103,0-2,0.897-2,2&#xd;&#xa;&#x9;&#x9;v3.759h-0.138c-0.084,0-0.169,0.005-0.252,0.016V26.531c0-1.103-0.897-2-2-2H37.624c-1.103,0-2,0.897-2,2v12.082&#xd;&#xa;&#x9;&#x9;c-0.173-0.048-0.354-0.073-0.539-0.073H24.267c-1.103,0-2,0.897-2,2v30.306c0,1.103,0.897,2,2,2h10.818&#xd;&#xa;&#x9;&#x9;c0.472,0,0.917-0.163,1.27-0.454c0.352,0.291,0.797,0.454,1.269,0.454h18.042c0.405,0,0.797-0.123,1.126-0.348&#xd;&#xa;&#x9;&#x9;c0.329,0.225,0.721,0.348,1.126,0.348h14.876c1.103,0,2-0.897,2-2V44.81C74.794,43.707,73.896,42.81,72.794,42.81z M63.2,64.715&#xd;&#xa;&#x9;&#x9;v0.818h-0.821v-0.818H63.2z M62.379,50.752v-0.82H63.2v0.82H62.379z M68.042,58.082v-0.82h0.816v0.82H68.042z M41.882,33.743&#xd;&#xa;&#x9;&#x9;v-0.819H42.7v0.819H41.882z M41.882,48.181v-0.82H42.7v0.82H41.882z M41.882,62.627v-0.822H42.7v0.822H41.882z M46.03,40.962v-0.82&#xd;&#xa;&#x9;&#x9;h0.824v0.82H46.03z M46.03,55.406v-0.822h0.824v0.822H46.03z M50.182,33.743v-0.819h0.823v0.819H50.182z M50.182,48.181v-0.82&#xd;&#xa;&#x9;&#x9;h0.823v0.82H50.182z M50.182,62.627v-0.822h0.823v0.822H50.182z M29.266,45.738v-0.82h0.818v0.82H29.266z M29.266,54.316v-0.824&#xd;&#xa;&#x9;&#x9;h0.818v0.824H29.266z M29.266,62.549v-0.816h0.818v0.816H29.266z"/>
  <path stroke-opacity="0.1" fill-opacity="0.1" d="M72.794,43.31h-0.638V39.05c0-0.827-0.673-1.5-1.5-1.5h-1.122v-4.118c0-0.827-0.673-1.5-1.5-1.5H67.65&#xd;&#xa;&#x9;&#x9;v-3.728c0-0.827-0.673-1.5-1.5-1.5h-1.583c-0.827,0-1.5,0.673-1.5,1.5v3.728h-0.385c-0.827,0-1.5,0.673-1.5,1.5v4.118h-1.127&#xd;&#xa;&#x9;&#x9;c-0.827,0-1.5,0.673-1.5,1.5v4.259h-0.638c-0.273,0-0.53,0.074-0.752,0.203V26.531c0-0.827-0.673-1.5-1.5-1.5H37.624&#xd;&#xa;&#x9;&#x9;c-0.827,0-1.5,0.673-1.5,1.5v12.927c-0.27-0.259-0.636-0.418-1.039-0.418H24.267c-0.827,0-1.5,0.673-1.5,1.5v30.306&#xd;&#xa;&#x9;&#x9;c0,0.827,0.673,1.5,1.5,1.5h10.818c0.534,0,1.003-0.28,1.27-0.701c0.266,0.421,0.735,0.701,1.269,0.701h18.042&#xd;&#xa;&#x9;&#x9;c0.448,0,0.851-0.197,1.126-0.51c0.275,0.313,0.678,0.51,1.126,0.51h14.876c0.827,0,1.5-0.673,1.5-1.5V44.81&#xd;&#xa;&#x9;&#x9;C74.294,43.982,73.621,43.31,72.794,43.31z M28.766,46.238v-1.82h1.818v1.82H28.766z M28.766,54.816v-1.824h1.818v1.824H28.766z&#xd;&#xa;&#x9;&#x9; M28.766,63.049v-1.816h1.818v1.816H28.766z M41.382,34.243v-1.819H43.2v1.819H41.382z M41.382,48.684v-1.823H43.2v1.823H41.382z&#xd;&#xa;&#x9;&#x9; M41.382,63.127v-1.822H43.2v1.822H41.382z M45.53,41.462v-1.82h1.824v1.82H45.53z M45.53,55.906v-1.822h1.824v1.822H45.53z&#xd;&#xa;&#x9;&#x9; M49.682,34.243v-1.819h1.823v1.819H49.682z M49.682,48.684v-1.823h1.823v1.823H49.682z M49.682,63.127v-1.822h1.823v1.822H49.682z&#xd;&#xa;&#x9;&#x9; M63.7,64.215v1.818h-1.821v-1.818H63.7z M61.879,51.252v-1.82H63.7v1.82H61.879z M67.542,58.582v-1.82h1.816v1.82H67.542z"/>
  <path stroke-opacity="0.15" fill-opacity="0.15" d="M72.794,43.81h-1.138V39.05c0-0.551-0.448-1-1-1h-1.622v-4.618c0-0.551-0.448-1-1-1H67.15v-4.228&#xd;&#xa;&#x9;&#x9;c0-0.551-0.448-1-1-1h-1.583c-0.552,0-1,0.449-1,1v4.228h-0.885c-0.552,0-1,0.449-1,1v4.618h-1.627c-0.552,0-1,0.449-1,1v4.759&#xd;&#xa;&#x9;&#x9;h-1.138c-0.552,0-1,0.449-1,1v26.036c0,0.552,0.448,1,1,1h14.876c0.552,0,1-0.448,1-1V44.81&#xd;&#xa;&#x9;&#x9;C73.794,44.258,73.346,43.81,72.794,43.81z M64.2,66.533h-2.821v-2.818H64.2V66.533z M64.2,51.752h-2.821v-2.821H64.2V51.752z&#xd;&#xa;&#x9;&#x9; M69.858,59.082h-2.816v-2.82h2.816V59.082z M35.085,39.54H24.267c-0.551,0-1,0.449-1,1v30.306c0,0.552,0.449,1,1,1h10.818&#xd;&#xa;&#x9;&#x9;c0.551,0,1-0.448,1-1V40.54C36.085,39.988,35.636,39.54,35.085,39.54z M31.084,63.549h-2.818v-2.816h2.818V63.549z M31.084,55.316&#xd;&#xa;&#x9;&#x9;h-2.818v-2.824h2.818V55.316z M31.084,46.738h-2.818v-2.82h2.818V46.738z M55.666,25.531H37.624c-0.551,0-1,0.449-1,1v44.315&#xd;&#xa;&#x9;&#x9;c0,0.552,0.449,1,1,1h18.042c0.552,0,1-0.448,1-1V26.531C56.666,25.979,56.218,25.531,55.666,25.531z M43.7,63.627h-2.818v-2.822&#xd;&#xa;&#x9;&#x9;H43.7V63.627z M43.7,49.186h-2.818v-2.825H43.7V49.186z M43.7,34.743h-2.818v-2.819H43.7V34.743z M47.854,56.406H45.03v-2.822&#xd;&#xa;&#x9;&#x9;h2.824V56.406z M47.854,41.962H45.03v-2.82h2.824V41.962z M52.005,63.627h-2.823v-2.822h2.823V63.627z M52.005,49.186h-2.823&#xd;&#xa;&#x9;&#x9;v-2.825h2.823V49.186z M52.005,34.743h-2.823v-2.819h2.823V34.743z"/>
  <path stroke-opacity="0.15" fill-opacity="0.15" d="M55.666,26.031H37.624c-0.276,0-0.5,0.224-0.5,0.5v44.315c0,0.276,0.224,0.5,0.5,0.5h18.042&#xd;&#xa;&#x9;&#x9;c0.276,0,0.5-0.224,0.5-0.5V26.531C56.166,26.254,55.942,26.031,55.666,26.031z M44.2,64.127h-3.818v-3.822H44.2V64.127z&#xd;&#xa;&#x9;&#x9; M44.2,49.686h-3.818v-3.825H44.2V49.686z M44.2,35.243h-3.818v-3.819H44.2V35.243z M48.354,56.906H44.53v-3.822h3.824V56.906z&#xd;&#xa;&#x9;&#x9; M48.354,42.462H44.53v-3.82h3.824V42.462z M52.505,64.127h-3.823v-3.822h3.823V64.127z M52.505,49.686h-3.823v-3.825h3.823V49.686&#xd;&#xa;&#x9;&#x9;z M52.505,35.243h-3.823v-3.819h3.823V35.243z M35.085,40.04H24.267c-0.276,0-0.5,0.224-0.5,0.5v30.306c0,0.276,0.224,0.5,0.5,0.5&#xd;&#xa;&#x9;&#x9;h10.818c0.276,0,0.5-0.224,0.5-0.5V40.54C35.585,40.263,35.361,40.04,35.085,40.04z M31.584,64.049h-3.818v-3.816h3.818V64.049z&#xd;&#xa;&#x9;&#x9; M31.584,55.816h-3.818v-3.824h3.818V55.816z M31.584,47.238h-3.818v-3.82h3.818V47.238z M72.794,44.31h-1.638V39.05&#xd;&#xa;&#x9;&#x9;c0-0.276-0.224-0.5-0.5-0.5h-2.122v-5.118c0-0.276-0.224-0.5-0.5-0.5H66.65v-4.728c0-0.276-0.224-0.5-0.5-0.5h-1.583&#xd;&#xa;&#x9;&#x9;c-0.276,0-0.5,0.224-0.5,0.5v4.728h-1.385c-0.276,0-0.5,0.224-0.5,0.5v5.118h-2.127c-0.276,0-0.5,0.224-0.5,0.5v5.259h-1.638&#xd;&#xa;&#x9;&#x9;c-0.276,0-0.5,0.224-0.5,0.5v26.036c0,0.276,0.224,0.5,0.5,0.5h14.876c0.276,0,0.5-0.224,0.5-0.5V44.81&#xd;&#xa;&#x9;&#x9;C73.294,44.533,73.07,44.31,72.794,44.31z M64.7,67.033h-3.821v-3.818H64.7V67.033z M64.7,52.252h-3.821v-3.823H64.7V52.252z&#xd;&#xa;&#x9;&#x9; M70.358,59.582h-3.816v-3.82h3.816V59.582z"/>
  <linearGradient id="SVGID_1_" y1="69.8457" x1="48.5308" y2="25.5313" gradientUnits="userSpaceOnUse" x2="48.5308">
   <stop offset="0" style="stop-color:#D0CBC5"/>
   <stop offset="0.5031" style="stop-color:#FAFCEF"/>
   <stop offset="0.9693" style="stop-color:#FFFFFF"/>
  </linearGradient>
  <path fill="url(#SVGID_1_)" d="M37.624,69.846h18.042V25.531H37.624V69.846z M53.005,63.627h-4.823v-4.822h4.823V63.627z&#xd;&#xa;&#x9;&#x9; M44.03,56.406v-4.822h4.824v4.822H44.03z M53.005,49.186h-4.823v-4.825h4.823V49.186z M44.03,41.962v-4.82h4.824v4.82H44.03z&#xd;&#xa;&#x9;&#x9; M48.182,29.923h4.823v4.819h-4.823V29.923z M39.882,29.923H44.7v4.819h-4.818V29.923z M39.882,44.361H44.7v4.825h-4.818V44.361z&#xd;&#xa;&#x9;&#x9; M39.882,58.805H44.7v4.822h-4.818V58.805z M24.267,69.846h10.818V39.54H24.267V69.846z M27.266,41.917h4.818v4.82h-4.818V41.917z&#xd;&#xa;&#x9;&#x9; M27.266,50.492h4.818v4.824h-4.818V50.492z M27.266,58.732h4.818v4.816h-4.818V58.732z M70.656,43.81V38.05h-2.622v-5.618H66.15&#xd;&#xa;&#x9;&#x9;v-5.228h-1.583v5.228h-1.885v5.618h-2.627v5.759h-2.138v26.036h14.876V43.81H70.656z M65.2,66.533h-4.821v-4.818H65.2V66.533z&#xd;&#xa;&#x9;&#x9; M65.2,51.752h-4.821v-4.825H65.2V51.752z M70.858,59.082h-4.816v-4.82h4.816V59.082z"/>
 </g>
 <g id="DO_NOT_EDIT_-_FOCAL_ZONE_GUIDES_ONLY"/>
</svg>
